<svg id="Capa_1" enable-background="new 0 0 511.999 511.999" height="512" viewBox="0 0 511.999 511.999" width="512" xmlns="http://www.w3.org/2000/svg"><path d="m435.861 466.591c-26.11-24.917-42.009-59.061-44.503-94.904 35.251-16.955 59.641-53.026 59.641-94.688v-40c0-24.813-20.187-45-45-45-5.259 0-10.306.915-15.001 2.581v-22.581h55.001c6.461 0 12.196-4.138 14.234-10.269s-.079-12.879-5.255-16.747l-190-142c-5.324-3.978-12.634-3.978-17.959 0l-190 142c-5.175 3.868-7.292 10.616-5.254 16.747s7.773 10.269 14.234 10.269h55v22.58c-4.695-1.665-9.742-2.58-15-2.58-24.813 0-45 20.187-45 45v40c0 41.663 24.392 77.735 59.644 94.689-2.494 35.843-18.396 69.986-44.507 94.903l-20.494 19.557c-4.436 4.232-5.849 10.738-3.569 16.43 2.28 5.69 7.793 9.422 13.924 9.422h260c.451 0 .895-.029 1.336-.067-.002.022-.003.045-.005.067h118.668c6.131 0 11.645-3.731 13.925-9.422 2.279-5.691.866-12.197-3.569-16.43zm-324.735-324.592 144.873-108.274 144.873 108.273h-24.874c-8.284 0-15 6.716-15 15l.001 120c0 8.271-6.729 15-15 15h-35.271c6.489-10.112 10.271-22.119 10.271-35 0-35.841-29.159-65-65-65s-65 29.159-65 65c0 12.881 3.782 24.888 10.271 35h-35.271c-8.271 0-15-6.729-15-15v-120c0-8.284-6.716-15-15-15h-24.873zm179.873 115c0 19.299-15.701 35-35 35s-35-15.701-35-35 15.701-35 35-35 35 15.701 35 35zm-120 225h-67.886c26.17-27.688 42.659-63.478 46.836-101.226 5.234.806 10.594 1.226 16.05 1.226h5zm155-130c-8.284 0-15 6.716-15 15v115h-110v-115c0-8.284-6.716-15-15-15h-20c-41.355 0-75-33.645-75-75v-40c0-8.271 6.729-15 15-15s15 6.729 15 15v40c0 24.813 20.187 45 45 45h180c24.813 0 45-20.187 45-45v-40c0-8.271 6.729-15 15-15s15 6.729 15 15v40c0 41.355-33.645 75-75 75zm15 130v-100h5c5.456 0 10.816-.419 16.051-1.226 4.176 37.748 20.664 73.539 46.834 101.226z"/></svg>