<svg id="Capa_1" enable-background="new 0 0 512 512" height="512" viewBox="0 0 512 512" width="512" xmlns="http://www.w3.org/2000/svg"><g><g><path d="m220.107 131.225c-4.143 0-7.5 3.358-7.5 7.5v11.373c0 4.142 3.357 7.5 7.5 7.5s7.5-3.358 7.5-7.5v-11.373c0-4.142-3.358-7.5-7.5-7.5z"/><path d="m291.391 157.597c4.143 0 7.5-3.358 7.5-7.5v-11.373c0-4.142-3.357-7.5-7.5-7.5s-7.5 3.358-7.5 7.5v11.373c0 4.142 3.357 7.5 7.5 7.5z"/><path d="m241.433 168.429 9.379 8.206c1.423 1.245 3.183 1.855 4.936 1.855 2.088 0 4.165-.867 5.647-2.562 2.728-3.117 2.411-7.855-.706-10.583l-4.044-3.538 5.019-6.433c2.548-3.266 1.966-7.979-1.3-10.527-3.265-2.548-7.979-1.966-10.526 1.3l-9.379 12.023c-2.448 3.138-2.02 7.639.974 10.259z"/><path d="m280.328 216.054v-9.331c0-11.752-9.561-21.313-21.313-21.313h-6.533c-11.752 0-21.313 9.561-21.313 21.313v9.331c0 6.229 5.066 11.295 11.295 11.295h26.567c6.23 0 11.297-5.067 11.297-11.295zm-15-3.705h-19.158v-5.626c0-3.481 2.832-6.313 6.313-6.313h6.533c3.48 0 6.313 2.832 6.313 6.313v5.626z"/><path d="m419.12 435.785-.612-4.062c-.618-4.096-4.44-6.915-8.534-6.298-4.096.617-6.915 4.438-6.298 8.534l.617 4.095c1.401 9.016-2.672 17.998-10.378 22.882-3.683 2.333-7.927 3.567-12.273 3.567-4.622 0-9.088-1.379-12.914-3.988l-53.899-36.75c-2.442-1.666-5.639-1.739-8.156-.19-1.72 1.058-3.874.968-5.489-.231l-12.939-9.61c-2.169-1.61-2.623-4.685-1.013-6.854l16.264-21.899c.78-1.05 1.922-1.734 3.217-1.925 1.293-.193 2.586.133 3.636.913l12.94 9.61c1.5 1.114 2.223 2.96 1.886 4.816-.528 2.915.708 5.867 3.155 7.536l39.89 27.198c2.464 1.68 5.688 1.74 8.215.154 2.525-1.586 3.87-4.519 3.426-7.467l-24.214-160.784h2.266c11.777 0 21.599 8.453 23.353 20.099l17.191 114.151c.616 4.097 4.438 6.913 8.533 6.3 4.096-.617 6.916-4.438 6.299-8.533l-17.191-114.151c-2.867-19.043-18.926-32.865-38.185-32.865h-70.268c16.826-7.612 30.478-21.043 38.364-37.713h12.902c18.481 0 33.518-15.036 33.518-33.517v-7.438c0-9.067-3.625-17.299-9.494-23.339v-19.624c0-25.12-8.632-48.64-23.635-67.259l14.662-14.662c2.929-2.929 2.929-7.678 0-10.606-2.93-2.929-7.678-2.929-10.607 0l-14.269 14.269c-7.456-6.967-15.97-12.929-25.385-17.625l-18.39-29.031c-2.217-3.5-6.85-4.54-10.349-2.323-3.5 2.216-4.54 6.85-2.323 10.349l6.146 9.703-29.747-14.361c-3.712-1.791-8.147-1.025-11.043 1.909-2.082 2.11-3.032 5.005-2.715 7.836l-26.547-8.217c-3.569-1.106-7.366-.09-9.907 2.649-2.542 2.739-3.271 6.601-1.9 10.081l3.586 9.102c1.145 2.905.118 6.201-2.44 7.836-4.688 2.999-9.086 6.321-13.182 9.92l-12.097-12.097c-2.93-2.929-7.678-2.929-10.607 0s-2.929 7.678 0 10.606l12.157 12.157c-9.213 10.719-16.193 23.125-20.546 36.545l-11.657-4.163c-3.9-1.393-8.192.639-9.586 4.541-1.393 3.901.641 8.192 4.541 9.585l13.087 4.674c-1.058 6.071-1.615 12.281-1.615 18.583v19.624c-5.869 6.04-9.493 14.271-9.493 23.338v7.438c0 18.481 15.035 33.517 33.517 33.517h12.902c7.886 16.67 21.538 30.102 38.365 37.713h-69.77c-19.259 0-35.317 13.822-38.185 32.865l-23.022 152.853c-2.318 14.916 4.422 29.775 17.171 37.855 6.087 3.858 13.108 5.897 20.305 5.897 2.789-.001 5.541-.312 8.222-.906v20.816c0 6.941 5.646 12.587 12.587 12.587h209.666c6.94 0 12.587-5.646 12.587-12.587v-20.815c2.681.595 5.433.906 8.223.906 7.195 0 14.217-2.039 20.304-5.897 12.748-8.081 19.488-22.94 17.174-37.822zm-56.653-24.731-22.27-15.184c-.447-5.632-3.276-10.849-7.967-14.332l-1.851-1.375c3.952-5.979 7.189-12.436 9.595-19.265h14.939zm-9.812-65.155h-8.828c.497-2.992.849-6.028 1.043-9.103.217-3.424-.993-6.809-3.319-9.287-2.328-2.48-5.633-3.902-9.067-3.902h-25.269v-15.107h39.808zm4.771-174.534v7.438c0 10.21-8.307 18.517-18.518 18.517h-7.632c1.389-5.801 2.136-11.849 2.136-18.071v-26.4h5.496c10.211-.001 18.518 8.305 18.518 18.516zm-184.837 25.954c-10.21 0-18.517-8.307-18.517-18.517v-7.438c0-10.21 8.307-18.517 18.517-18.517h5.496v26.4c0 6.222.747 12.27 2.136 18.071h-7.632zm20.496-18.071v-47.42c0-9.352 7.608-16.96 16.96-16.96h51.953c4.143 0 7.5-3.358 7.5-7.5s-3.357-7.5-7.5-7.5h-51.953c-17.623 0-31.96 14.337-31.96 31.96v6.02h-5.496c-3.126 0-6.15.44-9.023 1.244v-10.689c0-31.606 15.921-60.658 42.588-77.713 8.2-5.244 11.758-15.447 8.775-24.685l31.918 9.879c2.87.889 5.993-.022 7.937-2.312 1.549-1.825 2.11-4.247 1.595-6.515l17.064 8.238c4.987 2.407 10.909 5.204 17.015 7.687 34.915 14.201 57.475 47.731 57.475 85.421v10.689c-2.873-.804-5.897-1.244-9.023-1.244h-5.496v-6.02c0-17.623-14.337-31.96-31.96-31.96h-4.454c-4.143 0-7.5 3.358-7.5 7.5s3.357 7.5 7.5 7.5h4.454c9.352 0 16.96 7.608 16.96 16.96v47.42c0 34.553-28.111 62.664-62.664 62.664s-62.665-28.111-62.665-62.664zm78.306 76.081v13.702c0 8.487-6.905 15.393-15.393 15.393-8.487 0-15.393-6.905-15.393-15.393v-13.612c4.901.973 9.962 1.493 15.144 1.493 5.357 0 10.588-.546 15.642-1.583zm-45.785 9.704v3.998c0 16.758 13.634 30.393 30.393 30.393s30.393-13.634 30.393-30.393v-3.998h54.085l4.287 28.467h-41.997c-5.818 0-10.553 4.734-10.553 10.552v19.555h-28.216c-4.143 0-7.5 3.358-7.5 7.5s3.357 7.5 7.5 7.5h65.676c-1.188 11.867-5.166 22.995-11.389 32.647-4.073-2.665-8.908-3.754-13.766-3.036-5.258.776-9.898 3.554-13.067 7.821l-16.264 21.899c-.136.183-.246.376-.375.562h-37.628c-.129-.186-.241-.38-.376-.562l-16.264-21.899c-3.169-4.267-7.81-7.045-13.067-7.821-4.856-.715-9.687.371-13.759 3.032-2.024-3.132-3.816-6.416-5.343-9.838h30.346c4.143 0 7.5-3.358 7.5-7.5s-3.357-7.5-7.5-7.5h-35.192c-.534-2.56-.943-5.163-1.207-7.805h46.676c4.143 0 7.5-3.358 7.5-7.5s-3.357-7.5-7.5-7.5h-49.484c-3.435 0-6.739 1.422-9.067 3.902-2.326 2.478-3.536 5.863-3.319 9.285 1 15.844 6.12 30.692 14.485 43.372l-1.847 1.371c-4.69 3.483-7.52 8.7-7.967 14.333l-22.27 15.184 21.991-146.021zm-82.337 195.482c-3.826 2.608-8.292 3.987-12.913 3.988-4.348 0-8.592-1.233-12.274-3.567-7.706-4.884-11.779-13.866-10.373-22.917l23.025-152.889c1.754-11.646 11.575-20.098 23.353-20.098h2.266l-24.214 160.784c-.444 2.949.9 5.881 3.426 7.467 2.524 1.586 5.751 1.526 8.215-.154l39.89-27.198c2.447-1.668 3.684-4.621 3.155-7.536-.337-1.857.386-3.702 1.886-4.816l12.94-9.61c1.05-.78 2.339-1.106 3.636-.913 1.295.191 2.437.875 3.217 1.925l16.265 21.899c.779 1.05 1.104 2.341.913 3.635s-.875 2.437-1.926 3.217l-12.94 9.61c-1.616 1.199-3.77 1.289-5.489.231-2.517-1.549-5.713-1.476-8.156.19zm71.653 36.485h-61.344v-25.36l9.005-6.14h52.338v31.5zm143.496 0h-128.496v-36c0-5.79-4.71-10.5-10.5-10.5h-34.839l17.623-12.016c5.925 1.785 12.405.723 17.551-3.098l12.94-9.61c4.049-3.008 6.736-7.348 7.665-12.276h31.281c.897 4.743 3.485 9.179 7.656 12.277l12.939 9.609c5.145 3.821 11.627 4.882 17.55 3.098l48.629 33.156v25.36z"/><path d="m216.337 186.513c-4.143 0-7.5 3.358-7.5 7.5v14.432c0 4.142 3.357 7.5 7.5 7.5s7.5-3.358 7.5-7.5v-14.432c0-4.142-3.357-7.5-7.5-7.5z"/><path d="m287.66 194.013v14.432c0 4.142 3.357 7.5 7.5 7.5s7.5-3.358 7.5-7.5v-14.432c0-4.142-3.357-7.5-7.5-7.5s-7.5 3.358-7.5 7.5z"/></g></g></svg>