<svg height="512" viewBox="0 0 57 60" width="512" xmlns="http://www.w3.org/2000/svg"><g id="Page-1" fill="none" fill-rule="evenodd"><g id="031---Protein-Shake" fill="rgb(0,0,0)" fill-rule="nonzero"><path id="Shape" d="m27.78 29.289c-2.2771319-.7678198-4.7285479-.8560777-7.055-.254-1.1261436.3149255-2.2009033.7908376-3.191 1.413-.035892-2.3920932-.5953363-4.7472891-1.639-6.9-.8808859-1.732125-1.6112413-3.5367685-2.183-5.394.2905721-.0003643.5809409-.0153834.87-.045 1.973-.2 4.919-1.765 6.792-2.868.7875144.4927372 1.697045.7556213 2.626.759 2.965 0 4.454-3.659 2.52-5.958.019-.03.037-.06.053-.091.7197731-1.4229728.523157-3.13785867-.5-4.361l-2.621-3.15c-.9350268-1.12291087-2.4079619-1.6466041-3.842-1.366-2.926.566-12.619 2.7-14.5 6.475-2.131 4.262-.09 4.708-3.078 17.214-1.132 4.707-2.049 8.955-1.81 13.279.14143672 2.4700532.7881003 4.8848312 1.9 7.095.616 1.236.624 3.214 2 4.58.70632294.6660759 1.60378283 1.0938208 2.566 1.223 1.58802181.1562396 3.19079736.0583447 4.748-.29.7094063-.0908751 1.4112596-.233251 2.1-.426 1.3780148 2.094793 3.4210442 3.6647554 5.8 4.457 2.1247706.7104151 4.3297337 1.1534904 6.564 1.319.3554793.0357266.7030156-.1209066.9116953-.4108974.2086798-.2899908.2467996-.6692827.1-.9950001-.1467995-.3257173-.456216-.548376-.8116953-.5841025-2.0663628-.1483069-4.1064847-.5513602-6.074-1.2-2.1971562-.7148085-4.0382964-2.2418781-5.147-4.269-.247044-.4929488-.8464854-.6929118-1.34-.447-.768253.3082456-1.5762657.5062087-2.4.588-1.679.26-4.4.827-5.607-.377-.50618634-.6277644-.84076207-1.3761666-.971-2.172-.15334837-.6463459-.37075695-1.2757923-.649-1.879-.98877994-1.9670489-1.56362341-4.1159901-1.689-6.314-.223-4.053.662-8.15 1.754-12.7 2.955-12.401 1.092-13.146 2.923-16.797 1.092-2.186 7.554-4.334 13.1-5.4.715756-.14108832 1.4515543.11874044 1.92.678l2.622 3.152c.4363892.52791631.5687777 1.24394875.35 1.893-.5545233-.28891766-1.1247438-.54665202-1.708-.772-1.188-.476-2.1-.93-3.966-1.587-.3370801-.11843355-.7117385-.04804058-.982845.18466257-.2711065.23270314-.3974736.59236332-.3315.94350001s.3142649.64040388.651345.75883742c1.808.635 2.632 1.051 3.883 1.556 1.62.651 2.779 1.2 2.936 2.278.1050431.4351155.0128275.8944105-.2520264 1.2552595s-.67538.5865121-1.1219736.6167405c-.7715751-.030995-1.5134548-.3058301-2.119-.785-1.33-.836-2.989-1.877-7.045-1.2-2.907.483-4.049-.061-4.471-.428-.4180939-.3386336-1.02917985-.285765-1.38290236.119643-.3537225.405408-.32327548 1.0180205.06890236 1.386357.53851448.4481368 1.1778545.7587126 1.863.905.0630543 1.0762142.2213399 2.1447252.473 3.193l.006.028c.6203051 2.5067759 1.5304355 4.9327837 2.712 7.229 1.1305188 2.3875869 1.6169466 5.0293276 1.411 7.663-1.4859187 1.6184987-2.3737 3.6964574-2.516 5.889 0 .5522847.4477153 1 1 1s1-.4477153 1-1c0-.052.072-5.266 6.276-7.039 1.9561745-.4954122 4.0140924-.4123868 5.924.239.5270075.1555988 1.0808314-.1431808 1.2401899-.6690637.1593584-.5258829-.1354585-1.0818264-.6601899-1.2449363zm-12.615-15.307c1.3668846-.3143358 2.7921146-.2667707 4.135.138-1.516533.9365683-3.1791896 1.6125824-4.919 2-.3911228.0370865-.7848772.0370865-1.176 0-.1298882-.6361469-.2203936-1.2797034-.271-1.927.7479728-.0130961 1.4938342-.083637 2.231-.211z"/><path id="Shape" d="m26.491 50.024c-1.7332534-.1214419-3.4455781-.4511484-5.1-.982-.9884931-.3271457-1.8706926-.9143576-2.554-1.7-.2211474-.2806321-.5752115-.4219662-.9288197-.370763-.3536083.0512032-.6530392.2871647-.7855.619-.1324609.3318354-.0778277.7091309.1433197.989763 1.994 2.534 5.817 3.119 9.03 3.436.5497995.0552285 1.0402715-.3457005 1.0955-.8955s-.3457005-1.0402715-.8955-1.0955z"/><path id="Shape" d="m10.533 44.719c-.832.129-1.576.255-2.133.3-.21605672-.8791215-.52130615-1.7338869-.911-2.551-.25307472-.4810183-.84401843-.6718172-1.33060106-.4296132-.48658263.2422039-.69060991.8287119-.45939894 1.3206132.41687296.9552076.74849679 1.9453942.991 2.959.12045077.3882809.46397495.6649977.869.7 1.10001464.0178827 2.19856022-.087779 3.275-.315.5369773-.092051.9014586-.5970067.819722-1.1356505-.0817365-.5386438-.5796098-.9127415-1.119722-.8413495z"/><path id="Shape" d="m54.892 23.973c-1.5-1.336-1.583-1.709-1.1-2.295.3888822-.3834997.8075242-.7356003 1.252-1.053 2.0958708-1.8303861 2.4263612-4.9669934.758-7.194l-3.908-4.708c-.3795638-.45949628-.9450115-.72479071-1.541-.723h-1.353v-2.184c1.3765475-.48485233 2.2026937-1.89184415 1.9553873-3.33017801-.2473064-1.43833387-1.49595-2.48858739-2.9553873-2.48582199h-8c-1.4594373-.0027654-2.7080809 1.04748812-2.9553873 2.48582199-.2473064 1.43833386.5788398 2.84532568 1.9553873 3.33017801v2.184h-1.35c-.5952774-.00184257-1.160183.26263596-1.54.721l-3.91 4.708c-1.6681653 2.2243454-1.3417519 5.3581758.749 7.191.4468991.3185256.8675766.6723228 1.258 1.058.486.586.4.958-1.1 2.295-.14.124-.276.246-.407.368-1.1058317.9159029-1.7302454 2.2885809-1.694 3.724l1.951 30.07c.0682455 1.052899.9449053 1.8703843 2 1.865h18.086c1.0575399.0020674 1.9339056-.8195255 2-1.875l1.949-30.057c.0357446-1.4386144-.5909414-2.8140059-1.7-3.731-.125-.118-.261-.237-.4-.364zm-14.892-21.973h8c.5522847 0 1 .44771525 1 1s-.4477153 1-1 1h-8c-.5522847 0-1-.44771525-1-1s.4477153-1 1-1zm1 4h6v2h-6zm-3.35 4h12.7c4.408 5.31 3.9 4.671 4.1 5h-2.915l-1.7-2.555c-.306518-.4595009-.9274991-.583518-1.387-.277-.4595009.3065181-.583518.9274991-.277 1.387l.961 1.445h-4.132v-2c0-.5522847-.4477153-1-1-1s-1 .4477153-1 1v2h-4.132l.964-1.445c.1982824-.297245.2229246-.6776931.0646441-.9980332s-.4754371-.5319049-.832-.555-.6983617.1457882-.8966441.4430332l-1.703 2.555h-2.915c.201-.332-.311.312 4.1-5zm15.393 48h-18.085l-1.951-30.068c.0121163-.8349055.4037292-1.6188675 1.064-2.13.118-.11.244-.222.373-.338 1.1-.985 3.16-2.82 1.306-5.063-.464008-.491674-.9758719-.9358701-1.528-1.326-.5993187-.5348603-.9755581-1.2755594-1.054-2.075h21.667c-.0798708.8022685-.458621 1.5451329-1.061 2.081-.5500799.3873812-1.0596617.8292868-1.521 1.319-1.855 2.242.2 4.077 1.307 5.063.128.115.254.227.369.334.6649647.5115528 1.0594815 1.2991128 1.071 2.138z"/><path id="Shape" d="m43.5 54h-4.793l-.446-6.887c-.0358985-.5522847-.5127153-.9708985-1.065-.935s-.9708985.5127153-.935 1.065l.507 7.822c.0343101.5267503.4721346.9361162 1 .935h5.732c.5522847 0 1-.4477153 1-1s-.4477153-1-1-1z"/><path id="Shape" d="m18 38.988c.5390921-.0038959.9796906-.4312765 1-.97 0-.093.125-2.286 3.379-3.216 1.2174562-.2711319 2.4868207-.1917316 3.661.229.5270075.1555988 1.0808314-.1431808 1.2401899-.6690637.1593584-.5258829-.1354585-1.0818264-.6601899-1.2449363-1.5412255-.5366551-3.2041755-.6192646-4.791-.238-4.774 1.364-4.829 5.079-4.829 5.121.0005142.5432096.4378235.9849767.981.991z"/></g></g></svg>